<svg width="26" height="26" viewBox="0 0 26 26" fill="none" xmlns="http://www.w3.org/2000/svg">
<path d="M15.926 13.0118L20.64 7.25H16.75C16.4848 7.25 16.2304 7.14464 16.0429 6.95711C15.8554 6.76957 15.75 6.51522 15.75 6.25C15.75 5.98478 15.8554 5.73043 16.0429 5.54289C16.2304 5.35536 16.4848 5.25 16.75 5.25H22.75C23.0152 5.25 23.2696 5.35536 23.4571 5.54289C23.6446 5.73043 23.75 5.98478 23.75 6.25V12.25C23.75 12.5152 23.6446 12.7696 23.4571 12.9571C23.2696 13.1446 23.0152 13.25 22.75 13.25C22.4848 13.25 22.2304 13.1446 22.0429 12.9571C21.8554 12.7696 21.75 12.5152 21.75 12.25V9.05049L16.774 15.1338L16.7739 15.1339C16.6854 15.2419 16.5753 15.3302 16.4507 15.393C16.3261 15.4559 16.1897 15.492 16.0503 15.4989C15.9109 15.5059 15.7716 15.4836 15.6413 15.4335C15.511 15.3834 15.3927 15.3065 15.2939 15.2079L15.2937 15.2078L11.6201 11.5342L6.30818 18.838L6.30265 18.8456L6.30251 18.8455C6.14256 19.0489 5.90999 19.1824 5.65368 19.2179C5.39737 19.2534 5.13728 19.1882 4.92806 19.0359C4.71883 18.8837 4.57678 18.6563 4.53173 18.4014C4.48669 18.1466 4.54217 17.8843 4.68651 17.6695L4.69168 17.6619L4.69182 17.662L10.6917 9.41213L15.926 13.0118ZM15.926 13.0118L12.2078 9.29226L12.2077 9.29213C12.1054 9.18998 11.9822 9.11121 11.8466 9.06124C11.711 9.01128 11.5661 8.99131 11.422 9.00272C11.2779 9.01412 11.138 9.05663 11.0119 9.12731C10.8859 9.19795 10.7767 9.29506 10.6918 9.41196L15.926 13.0118ZM1 0.75H0.75V1V25V25.25H1H25H25.25V25V23.5V23.25H25H2.75V1V0.75H2.5H1Z" fill="#011A1E" stroke="black" stroke-width="0.5"/>
</svg>
