<svg width="45" height="45" viewBox="0 0 45 45" fill="none" xmlns="http://www.w3.org/2000/svg">
<path fill-rule="evenodd" clip-rule="evenodd" d="M35.5988 26.2266C36.8439 24.2731 37.5037 22.004 37.5 19.6875C37.5 12.9563 32.0438 7.50001 25.3125 7.50001C22.906 7.50001 20.6625 8.19751 18.7735 9.40032C17.5163 9.47084 16.2719 9.69051 15.0666 10.0547C16.3802 8.65422 17.9674 7.53842 19.7298 6.77645C21.4923 6.01448 23.3924 5.62257 25.3125 5.62501C33.0788 5.62501 39.375 11.9213 39.375 19.6875C39.3774 21.6076 38.9854 23.5077 38.2234 25.2702C37.4615 27.0326 36.3457 28.6198 34.9453 29.9335C35.3025 28.7494 35.5266 27.5081 35.5988 26.2266Z" fill="#011A1E"/>
<path fill-rule="evenodd" clip-rule="evenodd" d="M37.4372 26.8153C36.7584 27.9674 35.9194 29.0173 34.9453 29.9335C35.3025 28.7494 35.5266 27.5081 35.5988 26.2266C36.8439 24.2731 37.5037 22.004 37.5 19.6875C37.5 12.9563 32.0438 7.50002 25.3125 7.50002C22.906 7.50002 20.6625 8.19752 18.7735 9.40033C17.5163 9.47085 16.2719 9.69051 15.0666 10.0547C15.9828 9.08067 17.0326 8.24168 18.1847 7.56283C20.3443 6.29031 22.8059 5.62107 25.3125 5.62502C33.0788 5.62502 39.375 11.9213 39.375 19.6875C39.3794 22.1942 38.7102 24.6559 37.4372 26.8153Z" fill="#011A1E"/>
<path fill-rule="evenodd" clip-rule="evenodd" d="M33.75 25.3125C33.75 33.0788 27.4538 39.375 19.6875 39.375C11.9212 39.375 5.625 33.0788 5.625 25.3125C5.625 17.5462 11.9212 11.25 19.6875 11.25C27.4538 11.25 33.75 17.5462 33.75 25.3125ZM18.75 20.625C18.2527 20.625 17.7758 20.8225 17.4242 21.1742C17.0725 21.5258 16.875 22.0027 16.875 22.5C16.875 22.9973 17.0725 23.4742 17.4242 23.8258C17.7758 24.1775 18.2527 24.375 18.75 24.375V20.625ZM20.625 18.75V17.8125H18.75V18.75C17.7554 18.75 16.8016 19.1451 16.0984 19.8484C15.3951 20.5516 15 21.5054 15 22.5C15 23.4946 15.3951 24.4484 16.0984 25.1516C16.8016 25.8549 17.7554 26.25 18.75 26.25V30C17.9344 30 17.2397 29.4797 16.9809 28.7503C16.9425 28.631 16.8806 28.5206 16.7988 28.4256C16.717 28.3306 16.617 28.253 16.5047 28.1974C16.3923 28.1417 16.27 28.1092 16.1449 28.1016C16.0197 28.0941 15.8944 28.1117 15.7762 28.1535C15.658 28.1952 15.5494 28.2603 15.4567 28.3447C15.3641 28.4292 15.2894 28.5314 15.2369 28.6453C15.1845 28.7591 15.1554 28.8823 15.1515 29.0076C15.1475 29.1329 15.1687 29.2577 15.2138 29.3747C15.4724 30.1059 15.9513 30.739 16.5846 31.1868C17.2179 31.6345 17.9744 31.875 18.75 31.875V32.8125H20.625V31.875C21.6196 31.875 22.5734 31.4799 23.2766 30.7766C23.9799 30.0734 24.375 29.1196 24.375 28.125C24.375 27.1304 23.9799 26.1766 23.2766 25.4734C22.5734 24.7701 21.6196 24.375 20.625 24.375V20.625C21.4406 20.625 22.1353 21.1453 22.3941 21.8747C22.4325 21.994 22.4944 22.1044 22.5762 22.1994C22.658 22.2944 22.758 22.372 22.8703 22.4276C22.9827 22.4833 23.105 22.5158 23.2301 22.5234C23.3553 22.5309 23.4806 22.5133 23.5988 22.4715C23.717 22.4298 23.8256 22.3647 23.9183 22.2803C24.0109 22.1958 24.0856 22.0936 24.1381 21.9797C24.1905 21.8659 24.2196 21.7427 24.2235 21.6174C24.2275 21.4921 24.2063 21.3673 24.1612 21.2503C23.9026 20.5191 23.4237 19.886 22.7904 19.4382C22.1571 18.9905 21.4006 18.75 20.625 18.75ZM20.625 26.25V30C21.1223 30 21.5992 29.8025 21.9508 29.4508C22.3025 29.0992 22.5 28.6223 22.5 28.125C22.5 27.6277 22.3025 27.1508 21.9508 26.7992C21.5992 26.4475 21.1223 26.25 20.625 26.25Z" fill="#011A1E"/>
</svg>
