<svg width="24" height="24" viewBox="0 0 24 24" fill="none" xmlns="http://www.w3.org/2000/svg">
<g opacity="0.8">
<path d="M16.2998 13.2748C16.1165 13.0915 16.0248 12.8581 16.0248 12.5748C16.0248 12.2915 16.1165 12.0581 16.2998 11.8748L18.1748 9.9998H11.9998C11.7165 9.9998 11.4788 9.9038 11.2868 9.7118C11.0948 9.5198 10.9992 9.28247 10.9998 8.9998C10.9998 8.71647 11.0958 8.4788 11.2878 8.2868C11.4798 8.0948 11.7172 7.99914 11.9998 7.9998H18.1748L16.2998 6.1248C16.1165 5.94147 16.0248 5.7038 16.0248 5.4118C16.0248 5.1198 16.1165 4.88247 16.2998 4.6998C16.4832 4.51647 16.7165 4.4248 16.9998 4.4248C17.2832 4.4248 17.5165 4.51647 17.6998 4.6998L21.2998 8.2998C21.3998 8.3998 21.4708 8.50814 21.5128 8.6248C21.5548 8.74147 21.5755 8.86647 21.5748 8.9998C21.5748 9.13314 21.5538 9.25814 21.5118 9.3748C21.4698 9.49147 21.3992 9.5998 21.2998 9.6998L17.6998 13.2998C17.5165 13.4831 17.2832 13.5708 16.9998 13.5628C16.7165 13.5548 16.4832 13.4588 16.2998 13.2748ZM6.29984 19.2998L2.69984 15.6998C2.59984 15.5998 2.52884 15.4915 2.48684 15.3748C2.44484 15.2581 2.42451 15.1331 2.42584 14.9998C2.42584 14.8665 2.44684 14.7415 2.48884 14.6248C2.53084 14.5081 2.60118 14.3998 2.69984 14.2998L6.29984 10.6998C6.48318 10.5165 6.71651 10.4248 6.99984 10.4248C7.28318 10.4248 7.51651 10.5165 7.69984 10.6998C7.88318 10.8831 7.97484 11.1208 7.97484 11.4128C7.97484 11.7048 7.88318 11.9421 7.69984 12.1248L5.82484 13.9998H11.9998C12.2832 13.9998 12.5208 14.0958 12.7128 14.2878C12.9048 14.4798 13.0005 14.7171 12.9998 14.9998C12.9998 15.2831 12.9038 15.5208 12.7118 15.7128C12.5198 15.9048 12.2825 16.0005 11.9998 15.9998H5.82484L7.69984 17.8748C7.88318 18.0581 7.97484 18.2915 7.97484 18.5748C7.97484 18.8581 7.88318 19.0915 7.69984 19.2748C7.51651 19.4581 7.28318 19.5541 6.99984 19.5628C6.71651 19.5715 6.48318 19.4838 6.29984 19.2998Z" fill="white"/>
</g>
</svg>
