<svg width="24" height="24" viewBox="0 0 24 24" fill="none" xmlns="http://www.w3.org/2000/svg">
<g opacity="0.8">
<path d="M16.3001 13.275C16.1168 13.0917 16.0251 12.8584 16.0251 12.575C16.0251 12.2917 16.1168 12.0584 16.3001 11.875L18.1751 10H12.0001C11.7168 10 11.4791 9.90405 11.2871 9.71205C11.0951 9.52005 10.9994 9.28272 11.0001 9.00005C11.0001 8.71672 11.0961 8.47905 11.2881 8.28705C11.4801 8.09505 11.7174 7.99938 12.0001 8.00005H18.1751L16.3001 6.12505C16.1168 5.94172 16.0251 5.70405 16.0251 5.41205C16.0251 5.12005 16.1168 4.88272 16.3001 4.70005C16.4834 4.51672 16.7168 4.42505 17.0001 4.42505C17.2834 4.42505 17.5168 4.51672 17.7001 4.70005L21.3001 8.30005C21.4001 8.40005 21.4711 8.50838 21.5131 8.62505C21.5551 8.74172 21.5758 8.86672 21.5751 9.00005C21.5751 9.13338 21.5541 9.25838 21.5121 9.37505C21.4701 9.49172 21.3994 9.60005 21.3001 9.70005L17.7001 13.3C17.5168 13.4834 17.2834 13.571 17.0001 13.563C16.7168 13.555 16.4834 13.459 16.3001 13.275ZM6.30009 19.3L2.70009 15.7C2.60009 15.6 2.52909 15.4917 2.48709 15.375C2.44509 15.2584 2.42475 15.1334 2.42609 15C2.42609 14.8667 2.44709 14.7417 2.48909 14.625C2.53109 14.5084 2.60142 14.4 2.70009 14.3L6.30009 10.7C6.48342 10.5167 6.71675 10.425 7.00009 10.425C7.28342 10.425 7.51675 10.5167 7.70009 10.7C7.88342 10.8834 7.97509 11.121 7.97509 11.413C7.97509 11.705 7.88342 11.9424 7.70009 12.125L5.82509 14H12.0001C12.2834 14 12.5211 14.096 12.7131 14.288C12.9051 14.48 13.0008 14.7174 13.0001 15C13.0001 15.2834 12.9041 15.521 12.7121 15.713C12.5201 15.905 12.2828 16.0007 12.0001 16H5.82509L7.70009 17.875C7.88342 18.0584 7.97509 18.2917 7.97509 18.575C7.97509 18.8584 7.88342 19.0917 7.70009 19.275C7.51675 19.4584 7.28342 19.5544 7.00009 19.563C6.71675 19.5717 6.48342 19.484 6.30009 19.3Z" fill="white"/>
</g>
</svg>
