<svg width="24" height="24" viewBox="0 0 24 24" fill="none" xmlns="http://www.w3.org/2000/svg">
<path d="M14.65 12.35C14.75 12.25 14.8 12.1333 14.8 12C14.8 11.8667 14.75 11.75 14.65 11.65L11.85 8.85C11.7 8.7 11.521 8.66233 11.313 8.737C11.105 8.81167 11.0007 8.966 11 9.2L11 14.8C11 15.0333 11.1043 15.1873 11.313 15.262C11.5217 15.3367 11.7007 15.2993 11.85 15.15L14.65 12.35ZM22 12C22 13.3833 21.7373 14.6833 21.212 15.9C20.6867 17.1167 19.9743 18.175 19.075 19.075C18.175 19.975 17.1167 20.6873 15.9 21.212C14.6833 21.7367 13.3833 21.9993 12 22C10.6167 22 9.31667 21.7373 8.1 21.212C6.88333 20.6867 5.825 19.9743 4.925 19.075C4.025 18.175 3.31267 17.1167 2.788 15.9C2.26333 14.6833 2.00067 13.3833 2 12C2 10.6167 2.26267 9.31667 2.788 8.1C3.31333 6.88333 4.02567 5.825 4.925 4.925C5.825 4.025 6.88333 3.31233 8.1 2.787C9.31667 2.26167 10.6167 1.99933 12 2C13.3833 2 14.6833 2.26267 15.9 2.788C17.1167 3.31333 18.175 4.02567 19.075 4.925C19.975 5.825 20.6877 6.88333 21.213 8.1C21.7383 9.31667 22.0007 10.6167 22 12Z" fill="#121212"/>
</svg>
