<svg width="20" height="20" viewBox="0 0 20 20" fill="none" xmlns="http://www.w3.org/2000/svg">
<path d="M7.5 15.0001C7.04167 15.0001 6.64917 14.8368 6.3225 14.5101C5.99583 14.1834 5.83278 13.7912 5.83333 13.3334V3.33342C5.83333 2.87508 5.99667 2.48258 6.32333 2.15592C6.65 1.82925 7.04222 1.66619 7.5 1.66675H15C15.4583 1.66675 15.8508 1.83008 16.1775 2.15675C16.5042 2.48342 16.6672 2.87564 16.6667 3.33342V13.3334C16.6667 13.7917 16.5033 14.1842 16.1767 14.5109C15.85 14.8376 15.4578 15.0006 15 15.0001H7.5ZM7.5 13.3334H15V3.33342H7.5V13.3334ZM4.16667 18.3334C3.70833 18.3334 3.31583 18.1701 2.98917 17.8434C2.6625 17.5168 2.49945 17.1245 2.5 16.6667V5.83342C2.5 5.59731 2.58 5.39925 2.74 5.23925C2.9 5.07925 3.09778 4.99953 3.33333 5.00008C3.56945 5.00008 3.7675 5.08008 3.9275 5.24008C4.0875 5.40008 4.16722 5.59786 4.16667 5.83342V16.6667H12.5C12.7361 16.6667 12.9342 16.7468 13.0942 16.9068C13.2542 17.0668 13.3339 17.2645 13.3333 17.5001C13.3333 17.7362 13.2533 17.9342 13.0933 18.0942C12.9333 18.2542 12.7356 18.334 12.5 18.3334H4.16667Z" fill="white"/>
</svg>
