<svg width="256" height="256" viewBox="0 0 256 256" fill="none" xmlns="http://www.w3.org/2000/svg">
<path d="M53.92 34.62C53.2175 33.8281 52.3647 33.1834 51.4112 32.7235C50.4577 32.2636 49.4224 31.9974 48.3653 31.9406C47.3082 31.8837 46.2503 32.0372 45.2529 32.3922C44.2556 32.7472 43.3386 33.2966 42.5551 34.0086C41.7717 34.7206 41.1373 35.581 40.6889 36.5399C40.2404 37.4989 39.9867 38.5373 39.9425 39.5951C39.8983 40.6528 40.0645 41.7088 40.4314 42.7018C40.7983 43.6948 41.3587 44.6051 42.08 45.38L61.32 66.55C25 88.84 9.38003 123.2 8.69003 124.76C8.23516 125.783 8.00012 126.89 8.00012 128.01C8.00012 129.13 8.23516 130.237 8.69003 131.26C9.04003 132.05 17.51 150.83 36.34 169.66C61.43 194.74 93.12 208 128 208C145.926 208.102 163.671 204.411 180.07 197.17L202.07 221.38C202.773 222.172 203.625 222.817 204.579 223.277C205.532 223.736 206.568 224.003 207.625 224.059C208.682 224.116 209.74 223.963 210.737 223.608C211.734 223.253 212.651 222.703 213.435 221.991C214.218 221.279 214.853 220.419 215.301 219.46C215.75 218.501 216.003 217.463 216.048 216.405C216.092 215.347 215.926 214.291 215.559 213.298C215.192 212.305 214.631 211.395 213.91 210.62L53.92 34.62ZM101.25 110.46L142.92 156.31C136.645 159.611 129.451 160.735 122.468 159.504C115.485 158.274 109.109 154.759 104.34 149.512C99.5714 144.265 96.6804 137.582 96.1211 130.514C95.5617 123.446 97.3658 116.392 101.25 110.46ZM128 192C97.22 192 70.33 180.81 48.07 158.75C38.9332 149.67 31.1622 139.312 25 128C29.69 119.21 44.66 94.61 72.35 78.62L90.35 98.37C83.3814 107.295 79.7924 118.396 80.2173 129.712C80.6423 141.027 85.0539 151.828 92.6724 160.205C100.291 168.582 110.626 173.996 121.85 175.491C133.074 176.985 144.465 174.463 154.01 168.37L168.74 184.57C155.74 189.558 141.924 192.077 128 192ZM134 96.57C131.915 96.1722 130.074 94.9625 128.882 93.2072C127.689 91.4519 127.242 89.2946 127.64 87.21C128.038 85.1254 129.247 83.2842 131.003 82.0915C132.758 80.8988 134.915 80.4522 137 80.85C147.196 82.8267 156.48 88.0465 163.467 95.7309C170.454 103.415 174.769 113.152 175.77 123.49C175.968 125.602 175.318 127.707 173.964 129.34C172.61 130.974 170.662 132.002 168.55 132.2C168.3 132.215 168.05 132.215 167.8 132.2C165.8 132.209 163.87 131.468 162.39 130.124C160.909 128.781 159.985 126.931 159.8 124.94C159.127 118.064 156.252 111.589 151.604 106.477C146.955 101.366 140.781 97.8913 134 96.57ZM247.28 131.26C246.86 132.2 236.73 154.63 213.92 175.06C213.141 175.78 212.226 176.338 211.229 176.702C210.231 177.065 209.172 177.226 208.112 177.176C207.052 177.126 206.012 176.865 205.054 176.409C204.095 175.953 203.237 175.311 202.53 174.52C201.822 173.73 201.278 172.806 200.931 171.803C200.584 170.8 200.439 169.739 200.506 168.679C200.573 167.62 200.85 166.585 201.322 165.634C201.793 164.683 202.448 163.835 203.25 163.14C214.441 153.086 223.841 141.204 231.05 128C224.874 116.678 217.086 106.313 207.93 97.23C185.67 75.19 158.78 64 128 64C121.515 63.9921 115.039 64.5172 108.64 65.57C107.599 65.754 106.533 65.7301 105.501 65.4995C104.47 65.2688 103.494 64.8362 102.631 64.2264C101.768 63.6167 101.034 62.842 100.472 61.947C99.9101 61.0521 99.5309 60.0546 99.3565 59.0123C99.1822 57.97 99.216 56.9034 99.4562 55.8742C99.6964 54.8451 100.138 53.8737 100.756 53.0162C101.373 52.1587 102.155 51.4321 103.055 50.8784C103.955 50.3246 104.956 49.9547 106 49.79C113.272 48.5893 120.63 47.9906 128 48C162.88 48 194.57 61.26 219.66 86.35C238.49 105.18 246.96 123.97 247.31 124.76C247.765 125.783 248 126.89 248 128.01C248 129.13 247.765 130.237 247.31 131.26H247.28Z" fill="#F9F9F9"/>
</svg>
