<svg width="1440" height="829" viewBox="0 0 1440 829" fill="none" xmlns="http://www.w3.org/2000/svg">
<g clip-path="url(#clip0_2_130)">
<rect width="1440" height="829" fill="white"/>
<rect width="1440" height="829" fill="#011A1E"/>
<path fill-rule="evenodd" clip-rule="evenodd" d="M1119.08 103.008C1138.27 103.7 1128.89 145.369 1145.07 156.315C1160.06 166.451 1182.18 146.472 1197.5 156.042C1212.46 165.39 1218.73 185.845 1221.42 204.028C1224.31 223.53 1227.83 249.466 1213.12 261.572C1196.41 275.318 1171.51 257.856 1150.76 262.178C1138.65 264.7 1129.98 275.029 1119.08 281.16C1099 292.457 1079.37 325.118 1059.42 313.562C1039.73 302.158 1057.84 267.136 1054.33 243.651C1052.26 229.789 1045.64 217.793 1043.05 204.028C1039.92 187.317 1025.92 165.896 1037.54 154.125C1050.9 140.589 1076.14 164.376 1092.05 154.402C1108.26 144.245 1100.27 102.329 1119.08 103.008Z" fill="#FD8E8E"/>
<path fill-rule="evenodd" clip-rule="evenodd" d="M177.387 509.024C194.124 503.051 212.561 504.123 229.436 509.638C248.648 515.918 280.253 521.158 279.998 542.562C279.661 570.964 233.947 577.91 228.294 605.668C224.387 624.855 263.427 636.264 257.156 654.726C251.486 671.423 222.237 653.074 208.683 663.409C192.662 675.626 195.198 706.581 177.387 715.552C160.398 724.109 136.81 719.856 122.587 706.773C108.176 693.516 106.11 669.978 105.794 649.697C105.546 633.789 125.897 620.704 121.012 605.668C112.114 578.278 61.1068 567.029 70.0469 539.655C78.088 515.033 118.569 547.511 142.209 540.765C157.31 536.456 162.563 514.314 177.387 509.024Z" fill="#FD8E8E"/>
</g>
<defs>
<clipPath id="clip0_2_130">
<rect width="1440" height="829" fill="white"/>
</clipPath>
</defs>
</svg>
