<svg width="24" height="24" viewBox="0 0 24 24" fill="none" xmlns="http://www.w3.org/2000/svg">
<g opacity="0.8">
<path d="M4 20C3.45 20 2.979 19.804 2.587 19.412C2.195 19.02 1.99934 18.5493 2 18V6C2 5.45 2.196 4.979 2.588 4.587C2.98 4.195 3.45067 3.99934 4 4H20C20.55 4 21.021 4.196 21.413 4.588C21.805 4.98 22.0007 5.45067 22 6V12H4V18H13C13.2833 18 13.521 18.096 13.713 18.288C13.905 18.48 14.0007 18.7173 14 19C14 19.2833 13.904 19.521 13.712 19.713C13.52 19.905 13.2827 20.0007 13 20H4ZM4 8H20V6H4V8ZM20 22C19.7167 22 19.479 21.904 19.287 21.712C19.095 21.52 18.9993 21.2827 19 21V19H17C16.7167 19 16.479 18.904 16.287 18.712C16.095 18.52 15.9993 18.2827 16 18C16 17.7167 16.096 17.479 16.288 17.287C16.48 17.095 16.7173 16.9993 17 17H19V15C19 14.7167 19.096 14.479 19.288 14.287C19.48 14.095 19.7173 13.9993 20 14C20.2833 14 20.521 14.096 20.713 14.288C20.905 14.48 21.0007 14.7173 21 15V17H23C23.2833 17 23.521 17.096 23.713 17.288C23.905 17.48 24.0007 17.7173 24 18C24 18.2833 23.904 18.521 23.712 18.713C23.52 18.905 23.2827 19.0007 23 19H21V21C21 21.2833 20.904 21.521 20.712 21.713C20.52 21.905 20.2827 22.0007 20 22Z" fill="white"/>
</g>
</svg>
