<svg width="24" height="24" viewBox="0 0 24 24" fill="none" xmlns="http://www.w3.org/2000/svg">
<g opacity="0.8">
<path d="M16.3 13.2748C16.1167 13.0915 16.025 12.8581 16.025 12.5748C16.025 12.2915 16.1167 12.0581 16.3 11.8748L18.175 9.9998H12C11.7167 9.9998 11.479 9.9038 11.287 9.7118C11.095 9.5198 10.9994 9.28247 11 8.9998C11 8.71647 11.096 8.4788 11.288 8.2868C11.48 8.0948 11.7174 7.99914 12 7.9998H18.175L16.3 6.1248C16.1167 5.94147 16.025 5.7038 16.025 5.4118C16.025 5.1198 16.1167 4.88247 16.3 4.6998C16.4834 4.51647 16.7167 4.4248 17 4.4248C17.2834 4.4248 17.5167 4.51647 17.7 4.6998L21.3 8.2998C21.4 8.3998 21.471 8.50814 21.513 8.6248C21.555 8.74147 21.5757 8.86647 21.575 8.9998C21.575 9.13314 21.554 9.25814 21.512 9.3748C21.47 9.49147 21.3994 9.5998 21.3 9.6998L17.7 13.2998C17.5167 13.4831 17.2834 13.5708 17 13.5628C16.7167 13.5548 16.4834 13.4588 16.3 13.2748ZM6.30003 19.2998L2.70003 15.6998C2.60003 15.5998 2.52903 15.4915 2.48703 15.3748C2.44503 15.2581 2.42469 15.1331 2.42603 14.9998C2.42603 14.8665 2.44703 14.7415 2.48903 14.6248C2.53103 14.5081 2.60136 14.3998 2.70003 14.2998L6.30003 10.6998C6.48336 10.5165 6.71669 10.4248 7.00003 10.4248C7.28336 10.4248 7.51669 10.5165 7.70003 10.6998C7.88336 10.8831 7.97503 11.1208 7.97503 11.4128C7.97503 11.7048 7.88336 11.9421 7.70003 12.1248L5.82503 13.9998H12C12.2834 13.9998 12.521 14.0958 12.713 14.2878C12.905 14.4798 13.0007 14.7171 13 14.9998C13 15.2831 12.904 15.5208 12.712 15.7128C12.52 15.9048 12.2827 16.0005 12 15.9998H5.82503L7.70003 17.8748C7.88336 18.0581 7.97503 18.2915 7.97503 18.5748C7.97503 18.8581 7.88336 19.0915 7.70003 19.2748C7.51669 19.4581 7.28336 19.5541 7.00003 19.5628C6.71669 19.5715 6.48336 19.4838 6.30003 19.2998Z" fill="white"/>
</g>
</svg>
